<?xml version="1.0" standalone="no"?>
<!DOCTYPE svg PUBLIC "-//W3C//DTD SVG 20010904//EN"
 "http://www.w3.org/TR/2001/REC-SVG-20010904/DTD/svg10.dtd">
<svg version="1.0" xmlns="http://www.w3.org/2000/svg"
 width="1024.000000pt" height="1024.000000pt" viewBox="0 0 1024.000000 1024.000000"
 preserveAspectRatio="xMidYMid meet">

<g transform="translate(0.000000,1024.000000) scale(0.100000,-0.100000)"
fill="#000000" stroke="none">
<path d="M0 5120 l0 -5120 5120 0 5120 0 0 5120 0 5120 -5120 0 -5120 0 0
-5120z m2355 3842 c29 -55 31 -57 90 -70 32 -7 62 -15 65 -18 3 -3 -16 -25
-42 -47 l-48 -42 9 -55 c5 -30 7 -57 5 -59 -3 -3 -30 8 -61 23 l-56 27 -49
-30 c-27 -17 -52 -31 -55 -31 -3 0 -3 29 -1 64 l6 64 -44 31 c-24 17 -44 35
-44 40 0 9 23 17 101 36 19 5 32 21 53 71 16 36 31 62 35 59 3 -4 19 -32 36
-63z m5535 -75 c9 -19 30 -39 54 -51 l39 -19 -44 -21 c-33 -16 -46 -29 -53
-53 -10 -35 -26 -45 -26 -15 0 28 -29 61 -61 69 -40 11 -41 24 -4 36 42 13 53
24 60 58 8 37 16 36 35 -4z m419 -363 c47 -164 43 -157 96 -191 40 -26 106
-76 87 -66 -3 2 -10 -3 -16 -11 -6 -7 -43 -23 -83 -35 -57 -17 -76 -28 -94
-54 -13 -17 -28 -35 -34 -39 -5 -4 -6 -8 -1 -8 5 0 -1 -9 -13 -19 -13 -11 -20
-25 -16 -31 3 -5 -1 -13 -10 -17 -17 -6 -35 11 -35 32 1 6 5 2 11 -7 5 -10 15
-18 20 -18 6 0 2 13 -7 30 -10 16 -21 25 -24 20 -3 -5 -16 21 -28 58 -21 65
-25 70 -97 121 -41 30 -75 58 -75 63 0 11 35 24 90 32 75 12 94 23 124 79 53
96 68 118 79 114 6 -2 18 -26 26 -53z m-3003 -163 c-3 -5 29 -9 72 -10 210 -1
646 -117 930 -247 29 -13 56 -24 59 -24 4 0 65 -32 137 -72 160 -87 323 -197
477 -320 27 -22 45 -29 70 -26 29 3 38 12 83 87 28 47 56 86 62 88 6 2 28 -40
48 -93 43 -106 34 -99 169 -139 48 -14 87 -30 87 -35 0 -5 -35 -35 -77 -67
l-78 -59 -3 -59 c-2 -56 0 -63 35 -107 91 -112 133 -168 179 -238 27 -41 51
-77 55 -80 3 -3 15 -22 28 -42 12 -21 28 -38 33 -38 6 0 9 -3 5 -6 -10 -10 33
-85 45 -78 5 4 14 0 19 -7 15 -23 10 -34 -6 -13 -20 27 -19 0 3 -34 9 -16 23
-27 30 -25 7 3 10 -1 7 -9 -3 -8 1 -30 9 -49 11 -24 15 -28 16 -14 0 16 2 17
10 5 5 -8 7 -26 4 -40 -4 -21 -3 -22 5 -5 8 19 9 19 13 -5 5 -21 5 -20 7 8 1
25 5 32 21 32 17 0 20 7 20 39 0 30 4 40 20 44 15 4 20 14 20 41 0 28 4 36 18
36 9 0 23 9 30 20 7 11 17 20 22 20 6 0 10 -9 10 -20 0 -13 7 -20 20 -20 17 0
20 7 20 40 0 38 -2 40 -30 40 -28 0 -29 2 -18 20 10 15 10 25 2 38 -9 13 -7
21 9 35 25 21 51 22 71 2 26 -27 38 -18 34 25 -3 38 -2 40 24 40 20 0 28 5 28
18 0 9 9 23 20 30 18 11 20 21 18 112 -2 72 -7 100 -15 100 -7 0 -14 8 -14 18
-1 9 -3 26 -4 37 -1 11 -2 35 -3 53 -2 25 -6 32 -22 32 -17 0 -20 7 -20 40 0
22 4 40 9 40 5 0 7 9 4 19 -3 11 -12 18 -21 16 -10 -2 -20 -4 -24 -4 -4 -1 -5
-8 -2 -16 4 -10 0 -15 -15 -15 -28 0 -27 10 4 35 13 11 26 32 28 48 2 15 7 27
13 26 5 0 8 -5 6 -11 -1 -5 2 -7 7 -3 16 9 40 -37 37 -68 -2 -15 -1 -25 2 -23
2 3 18 -13 34 -35 16 -22 33 -37 37 -34 5 2 16 -6 25 -20 20 -31 21 -41 1 -25
-8 7 -16 11 -16 9 -8 -27 -5 -56 6 -56 10 0 11 5 4 18 -13 25 -11 33 4 20 8
-6 16 -8 19 -5 9 8 49 -62 45 -77 -2 -8 -2 -10 1 -6 2 4 10 0 18 -10 19 -25
17 -38 -3 -22 -9 8 -14 9 -10 2 4 -6 2 -23 -5 -38 -9 -20 -9 -28 2 -38 10 -9
11 -9 6 1 -4 7 -4 21 -1 33 7 20 7 20 21 2 13 -17 14 -17 7 1 -13 38 15 6 50
-57 125 -223 237 -478 321 -729 54 -162 122 -440 133 -538 l5 -55 -83 -39
c-197 -93 -232 -143 -323 -471 -10 -36 3 208 15 285 16 103 8 165 -30 225 -17
28 -38 64 -47 80 -18 32 -75 103 -136 170 -20 22 -46 52 -58 68 -33 41 -48 34
-81 -38 -16 -36 -34 -65 -39 -65 -6 0 -10 -18 -10 -39 0 -33 4 -40 22 -43 15
-2 26 -13 32 -33 20 -65 31 -85 48 -85 10 0 18 -6 18 -13 0 -18 24 -67 33 -67
4 0 7 -9 7 -20 0 -11 -4 -20 -10 -20 -5 0 -10 -18 -10 -40 0 -22 5 -40 10 -40
16 0 8 -152 -9 -169 -9 -10 -11 -28 -7 -57 4 -32 2 -45 -9 -51 -9 -5 -19 -37
-25 -83 -15 -105 -15 -104 -23 -117 -11 -18 -74 -46 -86 -38 -6 3 -11 1 -11
-5 0 -6 -5 -8 -11 -5 -6 4 -13 -3 -16 -15 -3 -12 -11 -19 -19 -16 -17 7 -22
-11 -14 -56 10 -53 -11 -56 -82 -13 -67 39 -78 43 -55 18 8 -10 18 -39 22 -65
7 -47 7 -48 -19 -48 -22 0 -26 -4 -26 -29 0 -28 -7 -34 -72 -55 -10 -3 -18
-16 -19 -28 0 -13 -3 -17 -6 -9 -5 11 -7 11 -14 0 -7 -11 -11 -10 -23 6 -18
24 -20 15 -4 -20 8 -19 14 -22 20 -13 7 10 9 10 6 -1 -9 -33 -27 -18 -56 49
-60 132 -142 393 -129 406 6 7 241 -41 296 -61 24 -8 46 -15 50 -15 8 0 7 242
-1 255 -3 6 -2 34 2 63 8 47 6 57 -16 89 -13 20 -24 40 -24 46 0 6 -6 18 -14
26 -7 9 -29 45 -47 81 -18 36 -36 67 -39 70 -4 3 -37 59 -73 125 -37 66 -71
127 -77 135 -5 8 -37 64 -71 123 -34 60 -68 111 -75 114 -8 3 -11 9 -8 14 3 5
-5 26 -17 46 -13 21 -25 31 -27 24 -2 -7 4 -25 15 -39 25 -35 31 -102 9 -102
-9 0 -16 -5 -16 -11 0 -6 9 -9 20 -6 11 3 18 1 14 -4 -3 -5 2 -9 12 -9 12 0
15 -6 11 -21 -5 -17 -3 -18 11 -7 14 11 15 10 8 -7 -11 -26 -7 -109 5 -113 5
-2 9 -21 9 -41 0 -21 3 -41 7 -45 4 -3 8 -34 10 -68 3 -48 -1 -66 -15 -82 -10
-12 -29 -38 -43 -58 -17 -27 -29 -36 -41 -32 -14 4 -18 -1 -18 -24 0 -17 -6
-33 -12 -36 -10 -5 -10 -7 0 -12 6 -3 12 -11 12 -16 0 -6 -3 -8 -7 -4 -5 4
-13 -9 -19 -31 -14 -47 -20 -33 -30 72 -4 44 -9 72 -12 61 -5 -22 16 -245 25
-259 8 -14 10 -126 2 -121 -7 4 -129 160 -214 272 -21 28 -42 52 -46 52 -4 0
-28 -33 -53 -72 -33 -54 -67 -90 -126 -138 -45 -36 -94 -75 -110 -88 l-28 -23
5 113 c3 62 8 159 12 216 3 56 4 102 1 102 -3 0 -26 -21 -50 -46 -25 -26 -63
-60 -85 -76 -80 -59 -268 -234 -319 -298 -29 -36 -123 -153 -208 -260 -231
-289 -347 -421 -399 -450 -53 -29 -315 -120 -346 -120 -22 0 -22 -3 -17 -62 3
-35 10 -94 15 -133 5 -38 9 -87 9 -108 -1 -50 27 -401 45 -557 7 -69 17 -163
20 -208 6 -73 9 -81 19 -60 18 36 90 47 150 22 25 -10 46 -25 46 -32 0 -7 4
-11 9 -7 12 7 54 -52 48 -68 -4 -7 -6 -6 -6 4 -1 9 -11 24 -23 35 -19 17 -21
17 -15 1 6 -15 4 -16 -16 -3 -12 8 -39 16 -60 18 -26 1 -36 6 -33 15 4 9 -4
13 -24 13 -22 0 -30 -5 -31 -17 0 -11 -3 -13 -6 -5 -9 22 -23 13 -24 -15 0
-25 -1 -26 -9 -8 -11 26 -12 -37 -4 -162 l7 -91 33 14 c88 37 188 3 231 -79
17 -33 21 -109 9 -150 -7 -22 -5 -27 8 -27 19 0 76 -76 76 -102 0 -10 2 -18 5
-18 2 0 46 27 97 61 51 34 118 74 148 89 167 85 346 89 570 14 123 -42 217
-91 435 -227 164 -103 314 -179 421 -215 34 -12 133 -35 220 -52 88 -17 174
-36 191 -41 32 -10 32 -11 19 -37 -8 -15 -22 -36 -31 -47 -9 -11 -13 -13 -9
-6 4 9 -6 5 -25 -8 -18 -13 -30 -26 -27 -29 3 -2 13 1 23 9 11 9 14 10 9 1
-12 -20 -64 -43 -68 -31 -2 7 -9 5 -17 -5 -12 -14 -11 -16 5 -10 12 4 6 -6
-16 -27 -20 -19 -40 -35 -45 -37 -6 -2 -17 -10 -26 -18 -9 -8 -18 -12 -21 -9
-2 3 -5 -2 -5 -10 0 -16 -1 -17 84 38 35 22 60 44 56 50 -3 6 -1 7 5 3 13 -8
88 36 95 56 2 7 8 -4 12 -25 10 -51 7 -53 -190 -172 -88 -54 -204 -126 -257
-161 -53 -35 -100 -64 -104 -64 -12 0 -76 -52 -70 -57 6 -6 61 25 173 99 45
29 100 64 124 78 24 14 71 44 104 66 34 23 82 51 106 62 24 12 57 29 72 39 19
12 30 15 35 7 4 -6 24 -17 45 -23 54 -18 49 -43 -18 -83 -140 -84 -766 -467
-940 -576 -66 -42 -137 -85 -157 -96 -40 -23 -203 -124 -577 -359 -46 -29 -64
-36 -78 -28 -10 5 -70 23 -133 41 -132 37 -411 139 -580 212 -63 28 -154 66
-203 84 -48 18 -97 40 -109 49 -13 8 -30 15 -40 15 -18 0 -34 17 -24 27 3 3
12 1 19 -5 8 -7 16 -9 20 -6 3 3 15 3 28 -1 17 -6 19 -9 8 -16 -11 -7 -11 -9
3 -9 9 0 25 -3 35 -6 15 -5 15 -4 3 5 -8 5 -11 13 -7 17 3 4 13 2 20 -4 8 -7
16 -10 19 -7 3 3 25 -3 49 -14 24 -10 116 -49 204 -85 88 -37 172 -74 187 -82
14 -8 34 -11 44 -7 12 4 15 3 10 -5 -5 -8 -1 -10 10 -5 16 6 16 7 -2 14 -89
37 -268 118 -305 140 -25 15 -57 30 -70 34 -13 4 -30 16 -36 26 -8 10 -21 15
-32 12 -10 -3 -22 0 -25 6 -5 7 -1 8 10 4 12 -4 15 -3 10 5 -4 7 -15 12 -24
12 -15 0 -15 2 -2 10 13 9 13 11 0 20 -8 5 -20 8 -27 6 -12 -5 -26 18 -17 27
3 3 17 -1 32 -8 15 -7 50 -23 77 -34 28 -12 59 -27 70 -33 79 -46 233 -118
245 -115 8 2 -10 16 -40 31 -72 38 -243 136 -254 146 -5 5 0 7 11 4 33 -9 36
13 6 30 -35 19 -26 20 17 2 22 -9 28 -16 20 -21 -17 -11 7 -25 42 -25 15 0 30
-5 34 -12 5 -7 3 -8 -6 -3 -9 5 -11 4 -6 -3 5 -8 13 -9 24 -3 9 4 24 6 32 4 8
-3 -64 38 -160 91 -199 109 -352 173 -490 206 -132 32 -328 33 -453 2 -140
-35 -306 -109 -307 -137 0 -6 -13 -23 -30 -38 l-29 -28 -15 29 c-32 63 -113
157 -190 221 -194 163 -395 259 -646 310 -101 20 -102 20 -405 -6 -233 -19
-475 -13 -580 15 l-70 18 -3 46 -3 47 123 72 c279 163 367 221 361 238 -4 12
-3 13 5 2 12 -16 -10 -28 332 176 281 168 492 304 485 312 -3 2 -12 -2 -20 -9
-14 -12 -21 -9 -48 22 -18 19 -42 40 -54 47 -13 6 -23 18 -23 26 0 36 62 142
133 228 23 28 37 53 33 62 -8 22 -27 18 -51 -9 -52 -60 -97 -107 -99 -104 -2
1 -20 45 -41 97 -41 98 -62 120 -152 157 -33 14 -33 14 -19 48 10 23 11 37 4
44 -7 7 -4 20 11 41 12 17 24 39 26 50 2 11 9 30 16 43 20 38 184 249 242 312
l55 59 72 -109 c148 -222 200 -368 200 -557 0 -117 -14 -191 -55 -283 l-24
-54 102 -1 c56 0 127 -4 158 -8 l56 -7 -3 37 c-5 70 60 146 146 169 28 7 49 6
86 -5 27 -8 50 -15 52 -15 1 0 2 9 2 19 0 11 12 34 27 52 69 82 233 94 254 19
4 -14 7 -18 8 -10 2 30 32 342 61 645 16 171 30 327 30 348 l0 37 -43 0 c-70
0 -225 30 -322 62 -129 43 -263 114 -355 187 -13 11 -29 17 -34 14 -5 -3 -6
-1 -3 4 4 6 -4 18 -17 27 -14 8 -63 53 -110 99 -47 46 -88 82 -91 79 -2 -3
-11 0 -18 7 -11 8 -20 7 -39 -8 -15 -12 -29 -16 -38 -11 -15 9 -40 2 -40 -11
0 -5 8 -9 18 -9 13 -1 9 -8 -16 -30 -38 -35 -52 -38 -52 -10 0 26 -12 25 -39
-3 -13 -15 -19 -30 -15 -41 7 -18 -16 -52 -25 -38 -3 5 -27 11 -54 14 -37 4
-49 2 -57 -11 -7 -12 -9 -12 -10 -2 0 11 -3 11 -15 1 -8 -6 -19 -9 -24 -6 -5
4 -12 -8 -14 -26 -4 -31 -4 -31 -6 7 -2 31 -4 36 -10 20 -7 -17 -9 -15 -16 14
-5 24 -10 30 -16 20 -5 -8 -10 56 -11 161 -1 96 -5 -129 -8 -500 l-5 -675 -43
-70 c-109 -177 -152 -307 -152 -455 l0 -87 -37 -6 c-20 -4 -42 -2 -48 3 -7 6
-15 7 -18 3 -4 -3 -7 1 -7 10 0 18 -35 41 -49 33 -5 -3 -15 2 -22 11 -12 15
-12 16 4 10 22 -8 22 -4 -3 18 -18 17 -20 17 -14 2 3 -9 2 -17 -2 -18 -5 0
-27 -1 -49 -2 -71 -3 -76 -25 -45 -185 14 -72 20 -144 20 -240 0 -133 -1 -138
-21 -139 -12 -1 -32 5 -45 14 -14 9 -27 13 -31 10 -9 -9 -43 12 -43 27 0 7
-12 18 -26 24 -15 7 -22 17 -18 24 4 7 3 8 -4 4 -6 -4 -19 6 -29 21 -23 38
-150 180 -245 276 -43 43 -78 87 -78 98 0 10 7 82 16 160 17 143 13 169 -19
156 -10 -4 -24 -54 -43 -156 l-29 -151 -50 0 c-27 0 -68 5 -90 11 -22 6 -49
11 -60 11 -11 0 -14 2 -7 5 14 5 17 83 3 83 -10 0 -36 133 -32 165 1 16 0 17
-8 5 -5 -8 -13 -12 -16 -8 -4 3 1 18 10 32 16 24 16 26 1 20 -17 -7 -23 11 -6
19 6 3 5 4 -2 3 -7 -2 -12 -13 -11 -25 3 -22 3 -22 -18 -2 -20 18 -20 21 -5
36 20 21 20 26 -1 18 -11 -4 -14 -3 -9 5 11 17 -243 306 -258 293 -6 -5 -51
-17 -101 -26 -144 -28 -136 -10 -133 -313 3 -227 5 -256 20 -266 17 -10 39 -7
181 27 l57 14 15 -51 c8 -28 17 -68 21 -88 5 -33 4 -38 -12 -37 -11 0 -14 3
-6 6 6 2 9 9 6 15 -4 7 -9 6 -14 -2 -5 -7 20 -40 65 -87 41 -42 88 -96 105
-122 l32 -46 -44 47 c-25 26 -48 45 -51 41 -4 -3 -7 1 -7 11 0 10 -5 14 -11
11 -6 -4 -21 3 -34 15 -20 19 -30 21 -73 15 -44 -6 -51 -4 -55 12 -2 10 -2 2
1 -17 2 -19 5 -51 6 -70 1 -35 1 -35 -44 -36 -25 0 -50 4 -57 8 -12 10 -28 -7
-19 -20 3 -5 -9 -6 -27 -4 -19 3 -52 22 -81 49 -27 24 -57 48 -67 54 -15 8
-17 5 -14 -26 2 -19 -1 -33 -5 -30 -5 3 -14 -3 -20 -12 -8 -13 -13 -14 -16 -5
-7 15 -30 16 -39 1 -4 -5 -15 -33 -25 -61 l-17 -50 -49 72 c-45 68 -68 90 -80
77 -9 -9 4 -39 41 -95 19 -30 35 -56 35 -58 0 -2 -65 -4 -145 -4 -103 0 -145
-3 -145 -12 0 -6 -10 -3 -22 8 l-21 19 19 -30 c10 -16 14 -26 7 -22 -18 11
-101 169 -144 275 -22 52 -39 97 -39 99 0 2 69 3 153 2 l152 -1 5 1214 c3 667
6 1205 8 1196 1 -10 7 -18 13 -18 5 0 7 5 4 10 -8 13 -7 13 61 -11 32 -11 66
-22 74 -25 13 -4 15 24 15 215 l0 219 -35 -14 c-47 -19 -74 -55 -108 -139
l-27 -70 -8 63 c-13 111 21 180 103 202 62 17 203 39 212 34 4 -3 8 -16 8 -29
0 -17 -6 -25 -22 -27 -30 -4 -40 -53 -29 -145 17 -142 87 -198 178 -142 43 27
51 49 59 152 6 76 -5 151 -31 217 -4 13 15 20 102 39 171 36 158 36 171 6 7
-14 12 -27 12 -29 0 -2 -18 -6 -40 -10 l-40 -6 0 -88 c0 -95 17 -145 63 -194
51 -54 134 -31 172 48 23 49 24 232 1 286 -22 51 -20 58 12 59 15 0 73 8 130
18 105 17 122 15 122 -20 0 -11 -12 -20 -38 -26 l-37 -9 -3 -87 c-3 -79 0 -91
24 -133 27 -47 75 -84 106 -84 32 0 85 32 104 64 27 45 27 250 0 318 -18 46
-18 47 3 69 l21 23 0 -27 c0 -31 2 -32 95 -12 38 8 80 15 92 15 13 0 23 6 23
13 1 19 30 -24 30 -44 0 -13 -11 -20 -34 -24 -39 -8 -46 -23 -46 -102 0 -106
64 -213 128 -213 35 0 86 31 109 66 27 42 31 219 6 299 l-19 60 60 2 c34 1 75
7 91 13 17 6 51 14 78 16 44 4 48 3 57 -21 6 -15 10 -28 10 -29 0 -2 -17 -6
-39 -10 -37 -6 -38 -7 -44 -57 -12 -96 17 -185 75 -234 26 -22 38 -26 67 -21
19 3 48 15 63 26 16 12 32 19 36 16 9 -6 12 26 15 172 2 67 -1 122 -5 122 -4
0 -12 18 -18 41 -6 22 -13 48 -16 57 -4 12 -2 11 8 -3 15 -22 32 -28 57 -20
10 3 37 44 60 91 38 77 98 181 111 194 3 3 22 31 43 63 83 126 289 342 436
456 44 34 82 61 85 61 3 0 37 20 74 44 38 24 106 63 151 87 58 30 78 45 69 51
-9 6 -6 7 8 3 12 -3 43 5 75 20 30 14 47 25 39 25 -13 0 -13 1 0 10 8 5 22 10
30 10 13 0 13 -1 0 -11 -11 -8 -9 -9 9 -3 52 14 84 31 70 37 -8 3 9 6 38 6 28
1 55 6 58 12 4 6 14 8 22 5 8 -3 11 -1 8 4 -4 6 7 10 24 10 16 0 32 4 35 8 3
5 18 8 33 7 15 -1 20 0 10 2 -18 4 -18 5 0 18 10 8 26 15 36 15 11 0 17 8 17
25 0 30 7 31 38 6 22 -20 31 -48 10 -35 -7 5 -8 3 -3 -6 6 -10 11 -10 20 3 7
10 15 17 18 17 7 0 -29 -63 -95 -165 -132 -203 -238 -492 -268 -725 -6 -47
-13 -166 -17 -265 l-6 -180 -77 -72 c-134 -126 -211 -274 -232 -444 -26 -210
46 -461 194 -676 72 -104 71 -104 102 -25 51 130 178 306 247 342 17 10 19 7
19 -32 0 -53 18 -80 71 -110 l42 -23 -6 -108 c-4 -101 -3 -108 16 -122 12 -8
28 -15 35 -15 16 0 42 -24 42 -40 0 -22 47 -59 68 -53 11 2 31 -1 43 -8 13 -7
28 -12 32 -11 5 1 6 -2 2 -7 -3 -6 1 -25 10 -43 11 -26 14 -27 10 -8 -4 20 -2
18 10 -8 12 -25 13 -37 4 -54 -8 -14 -8 -18 0 -14 6 4 11 2 11 -3 0 -6 5 -11
11 -11 6 0 8 7 5 16 -3 8 -2 12 4 9 13 -8 13 1 -1 28 -7 15 -2 13 15 -8 28
-33 35 -55 11 -35 -8 7 -15 9 -16 4 0 -5 -2 -20 -5 -33 -4 -23 -3 -23 13 -9
10 8 23 14 29 11 12 -4 64 58 64 76 0 5 6 14 13 18 7 4 26 27 43 50 28 42 54
56 54 31 0 -7 5 -5 11 5 5 9 19 17 29 17 21 0 40 28 40 58 0 15 9 22 35 26 47
9 58 37 43 108 -6 30 -8 74 -4 100 6 42 11 48 40 58 48 15 65 39 73 100 l8 54
44 -39 c69 -62 126 -144 189 -270 l59 -116 35 43 c163 199 259 505 228 727
-24 177 -87 301 -220 432 l-87 85 -7 170 c-8 206 -26 333 -65 484 -55 211
-131 383 -250 562 -46 70 -68 114 -65 125 4 14 3 15 -4 5 -7 -11 -15 -6 -35
19 -27 35 -28 45 -3 36 9 -4 13 -13 10 -21 -3 -8 0 -17 7 -22 9 -5 10 -2 6 9
-4 10 -1 17 5 17 7 0 -4 15 -23 33 -19 18 -40 49 -47 68 -6 19 -10 24 -8 12 2
-12 -1 -24 -8 -26 -7 -3 -4 -12 8 -26 11 -11 14 -21 8 -21 -7 0 -12 3 -12 8 0
4 -20 29 -45 56 -25 27 -42 53 -38 59 4 6 9 2 14 -9 8 -23 59 -72 59 -57 0 5
-11 20 -25 33 -14 13 -25 28 -25 34 0 6 5 4 10 -4 7 -11 12 -12 20 -4 9 9 4
13 -16 18 -33 9 -102 66 -80 66 8 0 25 -11 38 -25 l23 -24 0 23 c0 16 -4 22
-14 18 -10 -4 -13 -1 -8 10 4 12 0 15 -16 11 -13 -3 -18 -1 -12 4 14 11 17 33
4 33 -5 0 -8 4 -5 9 3 5 -1 14 -9 21 -8 7 -15 9 -15 4 0 -5 -4 -3 -9 5 -7 11
-10 9 -16 -8 -3 -12 -10 -19 -15 -16 -4 3 -10 -5 -13 -17 -4 -12 -2 -25 4 -29
6 -3 -16 -5 -47 -3 -47 3 -62 0 -76 -15 -9 -11 -21 -21 -27 -22 -16 -7 -18
-44 -1 -41 9 2 6 -6 -10 -23 l-25 -27 -5 24 c-5 21 -11 24 -40 20 -6 -1 -8
-14 -4 -29 l6 -28 -21 25 c-18 23 -19 35 -2 35 3 0 18 11 31 23 14 13 37 30
52 38 15 8 32 23 38 35 9 16 17 19 41 14 22 -5 29 -3 29 8 0 8 -6 17 -14 20
-10 4 -12 19 -8 56 4 42 2 51 -12 51 -12 0 -16 10 -16 40 0 33 -3 40 -20 40
-17 0 -20 -7 -20 -40 0 -22 5 -40 11 -40 16 0 6 -42 -13 -54 -26 -16 -47 7
-30 34 14 24 16 100 2 100 -5 0 -10 18 -10 40 l0 40 -40 0 c-29 0 -40 4 -40
15 0 11 11 15 40 15 36 0 40 3 40 25 0 23 -4 25 -40 25 -22 0 -40 -4 -40 -10
0 -5 -9 -10 -19 -10 -11 0 -23 -4 -26 -10 -13 -20 -55 -11 -65 14 -5 14 -19
27 -32 29 -13 3 9 3 47 2 55 -3 62 -2 30 4 l-40 8 45 2 c25 0 72 -6 103 -14
44 -11 80 -13 145 -8 l87 8 -55 6 c-54 6 -54 6 25 9 72 3 76 4 35 10 -31 5 -1
7 93 8 79 1 136 -2 133 -7z m-363 -18 c-13 -2 -33 -2 -45 0 -13 2 -3 4 22 4
25 0 35 -2 23 -4z m-3283 -98 c-8 -9 -8 -15 0 -20 12 -8 13 -25 1 -25 -13 0
-22 30 -16 52 4 10 11 16 16 12 6 -4 6 -11 -1 -19z m2657 19 c-3 -3 -12 -4
-19 -1 -8 3 -5 6 6 6 11 1 17 -2 13 -5z m4684 -58 c35 -74 38 -77 102 -101 26
-10 47 -21 47 -25 0 -4 -24 -18 -52 -31 -57 -25 -60 -26 -83 -28 -8 0 -24 -16
-35 -33 -13 -22 -20 -27 -20 -15 0 9 -4 17 -10 17 -6 0 -6 -9 0 -26 17 -44 10
-41 -18 10 -23 42 -36 53 -79 71 -28 11 -55 24 -59 28 -4 4 20 19 54 34 53 22
63 31 73 62 14 44 40 101 46 101 2 0 18 -29 34 -64z m-4728 47 c-7 -2 -19 -2
-25 0 -7 3 -2 5 12 5 14 0 19 -2 13 -5z m502 -3 c3 -5 -1 -10 -9 -10 -9 0 -16
5 -16 10 0 6 4 10 9 10 6 0 13 -4 16 -10z m-406 -16 c2 -2 -5 -4 -16 -4 -11 0
-33 -6 -48 -14 -19 -10 -35 -12 -52 -5 -13 5 -41 10 -61 10 -29 1 -24 3 23 10
33 5 64 11 70 13 10 4 77 -4 84 -10z m-214 -24 c7 -12 -2 -12 -30 0 -19 8 -19
9 2 9 12 1 25 -3 28 -9z m-28 -26 c-3 -3 -12 -4 -19 -1 -8 3 -5 6 6 6 11 1 17
-2 13 -5z m-27 -33 c0 -6 -4 -13 -10 -16 -5 -3 -10 1 -10 9 0 9 5 16 10 16 6
0 10 -4 10 -9z m-2911 -225 c16 -15 25 -12 132 45 63 34 118 65 123 70 31 29
19 -6 -41 -122 l-68 -130 40 -36 c22 -19 75 -64 118 -99 l77 -63 -144 6 -145
6 -11 -29 c-7 -16 -28 -86 -48 -156 -20 -70 -39 -124 -43 -120 -3 4 -26 66
-49 137 -24 72 -44 131 -45 133 -2 3 -161 -45 -194 -59 -13 -5 -26 -8 -28 -5
-3 2 19 39 47 81 29 42 48 80 43 85 -4 4 -61 18 -126 30 -64 13 -114 27 -110
31 5 3 74 28 155 55 l148 49 0 75 c0 41 3 111 6 156 l7 81 69 -102 c37 -56 77
-110 87 -119z m2649 172 c-2 -9 12 -13 50 -12 39 1 52 -2 52 -13 0 -8 -4 -11
-10 -8 -5 3 -10 -1 -10 -9 0 -20 -14 -20 -30 -1 -7 8 -18 15 -24 14 -6 -1 -26
5 -45 13 -29 13 -32 17 -15 21 32 8 34 8 32 -5z m-118 -48 c-8 -5 -19 -10 -25
-10 -5 0 -3 5 5 10 8 5 20 10 25 10 6 0 3 -5 -5 -10z m33 -24 c4 -10 0 -12
-14 -9 -22 6 -26 23 -5 23 8 0 16 -6 19 -14z m-74 -5 c19 -12 -4 -24 -30 -16
-17 6 -19 9 -8 16 17 11 21 11 38 0z m1229 -32 c-2 -6 -7 -10 -11 -10 -4 1
-16 1 -27 1 -11 0 -20 5 -20 10 0 6 14 10 31 10 17 0 29 -5 27 -11z m52 4 c0
-17 -19 -35 -29 -29 -18 12 -12 36 9 36 11 0 20 -3 20 -7z m-1320 -35 c-3 -50
-2 -54 20 -55 11 -1 19 1 19 5 -4 26 4 32 41 32 22 0 40 -4 40 -10 0 -5 -13
-10 -30 -10 -20 0 -30 -5 -30 -15 0 -9 -7 -18 -15 -21 -8 -4 -13 -10 -10 -14
3 -5 1 -11 -4 -14 -11 -7 -49 26 -44 40 2 6 -3 11 -11 11 -8 0 -13 -4 -10 -9
3 -4 -5 -8 -18 -8 -13 0 -33 -3 -44 -6 -17 -4 -22 0 -26 20 -3 16 0 27 9 30
24 10 39 7 23 -4 -13 -9 -13 -10 0 -10 8 0 22 5 30 10 10 6 11 10 3 10 -7 0
-13 5 -13 11 0 6 7 9 15 5 12 -4 13 -2 6 12 -8 15 -5 18 21 20 28 2 29 0 28
-30z m1205 11 c4 -6 5 -13 2 -16 -8 -7 -47 7 -47 18 0 13 37 11 45 -2z m272
-51 c-3 -7 -5 -2 -5 12 0 14 2 19 5 13 2 -7 2 -19 0 -25z m-371 -5 c-7 -7 -97
-5 -105 3 -2 2 22 4 54 4 32 0 55 -3 51 -7z m349 -12 c-3 -6 4 -15 16 -21 11
-7 18 -14 15 -17 -8 -9 -47 28 -40 38 3 5 7 9 10 9 3 0 3 -4 -1 -9z m-1660
-11 c-3 -5 -12 -10 -18 -10 -7 0 -6 4 3 10 19 12 23 12 15 0z m10 -20 c-10
-11 -22 -20 -28 -20 -5 0 1 9 14 20 31 25 37 25 14 0z m1525 12 c0 -11 -41
-34 -48 -28 -3 4 3 13 14 21 21 16 34 19 34 7z m-1345 -22 c3 -6 -1 -7 -9 -4
-18 7 -21 14 -7 14 6 0 13 -4 16 -10z m-167 -18 c68 -4 86 -22 22 -22 -22 0
-40 -4 -40 -10 0 -5 -21 -10 -46 -10 -25 0 -43 4 -40 9 4 5 -2 7 -13 4 -12 -3
-18 -13 -17 -29 1 -20 6 -24 31 -24 28 0 30 -2 30 -40 1 -35 -2 -40 -22 -40
-13 0 -22 3 -22 8 4 26 -4 41 -28 48 -16 4 -32 6 -37 5 -5 -1 -6 5 -3 12 4 11
0 13 -16 10 -21 -4 -21 -4 3 16 14 11 28 21 32 21 16 0 77 48 70 55 -4 5 2 4
13 0 11 -5 48 -11 83 -13z m1702 -10 c0 -15 -2 -15 -10 -2 -13 20 -13 33 0 25
6 -3 10 -14 10 -23z m-182 -69 c-82 -105 -134 -176 -147 -200 -12 -23 -61 -33
-61 -14 0 17 116 166 184 236 83 86 98 72 24 -22z m-1370 66 c-12 -7 -24 -7
-35 0 -15 9 -12 10 17 10 29 0 32 -1 18 -10z m4376 -25 c9 -24 2 -26 -12 -4
-7 11 -8 20 -3 20 5 0 12 -7 15 -16z m-3164 -39 c4 3 10 -2 14 -10 6 -16 -9
-30 -18 -17 -8 14 -56 2 -65 -17 -5 -9 -7 -24 -6 -33 4 -21 -11 -32 -42 -34
-19 -1 -21 2 -10 20 6 12 10 25 9 30 -2 5 4 4 12 -4 13 -10 16 -10 16 0 0 20
31 50 52 50 12 0 18 8 19 23 1 17 2 18 6 4 2 -9 8 -15 13 -12z m44 10 c-4 -8
-8 -15 -10 -15 -2 0 -4 7 -4 15 0 8 4 15 10 15 5 0 7 -7 4 -15z m3181 -45 c11
-16 23 -30 28 -30 4 0 7 -7 7 -15 0 -9 7 -18 15 -21 20 -8 10 -23 -13 -19 -11
1 -16 10 -15 23 2 16 -2 20 -15 16 -12 -4 -14 -3 -4 4 10 7 8 16 -13 40 -15
18 -23 32 -18 32 4 0 17 -14 28 -30z m-4807 9 c-20 -11 -24 -29 -6 -29 6 0 20
-7 30 -17 10 -9 18 -12 18 -6 0 5 11 15 25 21 22 10 25 9 25 -8 0 -12 -7 -20
-17 -20 -15 0 -16 -2 -3 -10 13 -9 11 -13 -10 -29 -25 -20 -100 -33 -100 -18
0 5 -6 4 -14 -3 -8 -6 -13 -17 -10 -23 2 -7 -5 -18 -17 -25 -17 -11 -24 -11
-45 2 -22 15 -24 15 -30 -8 -3 -14 -3 -30 1 -35 6 -10 -8 -16 -29 -12 -4 1 -5
-34 -1 -79 5 -56 4 -80 -4 -80 -6 0 -11 9 -11 20 0 22 -1 23 -24 14 -9 -3 -16
-12 -16 -19 0 -17 -34 -28 -60 -20 -11 3 -20 13 -20 20 0 8 -9 19 -19 25 -16
8 -21 6 -26 -10 -7 -21 -25 -28 -25 -10 0 6 4 10 9 10 10 0 27 39 23 52 -1 4
5 5 13 2 9 -4 22 -1 30 6 8 6 18 9 24 6 5 -3 11 1 15 9 3 9 19 15 41 15 32 0
35 2 35 31 0 17 -5 40 -11 52 -7 12 -8 19 -4 15 12 -11 47 12 41 27 -3 9 0 12
10 8 7 -3 14 0 14 6 0 6 5 11 11 11 6 0 8 -7 5 -16 -3 -9 -2 -12 5 -8 6 3 8
17 4 31 -3 14 -2 22 3 19 6 -3 15 1 22 9 7 8 23 15 37 15 16 0 22 4 17 13 -6
10 -4 10 7 0 7 -7 20 -13 29 -13 10 0 7 6 -10 20 -20 15 -28 16 -40 7 -9 -7
-3 0 12 16 16 15 36 27 46 27 16 -1 16 -1 0 -11z m1552 -33 c0 -3 -4 -8 -10
-11 -5 -3 -10 -1 -10 4 0 6 5 11 10 11 6 0 10 -2 10 -4z m-1350 -16 c0 -5 -10
-10 -22 -10 -19 0 -20 2 -8 10 19 13 30 13 30 0z m1320 -44 c0 -2 -7 -9 -15
-16 -13 -11 -14 -10 -9 4 5 14 24 23 24 12z m-1445 -56 c-72 -12 -115 -11
-115 0 0 6 33 9 83 9 77 -2 79 -2 32 -9z m1255 0 c-8 -5 -22 -9 -30 -9 -10 0
-8 3 5 9 27 12 43 12 25 0z m3644 -83 c15 -21 26 -41 23 -43 -5 -6 -37 37 -57
76 -15 29 -4 19 34 -33z m-5184 34 c0 -14 -26 -20 -41 -9 -11 8 -11 9 3 4 10
-3 20 -1 23 4 8 12 15 13 15 1z m2342 -81 c10 0 98 -156 129 -230 17 -39 27
-76 23 -82 -4 -6 -3 -8 4 -4 14 8 86 -216 106 -327 23 -129 26 -158 15 -152
-5 4 -10 -13 -10 -37 -1 -37 -3 -34 -10 22 -5 40 -5 68 1 74 6 6 10 17 9 25 0
11 -3 10 -9 -4 -10 -24 -11 -21 -35 90 -35 160 -110 362 -187 500 -44 79 -46
80 -88 83 -23 2 -40 0 -38 -5 2 -4 27 -56 55 -114 44 -88 51 -110 44 -135 -4
-16 -6 -35 -3 -43 2 -8 0 -11 -5 -8 -5 3 -8 -7 -5 -26 2 -24 1 -28 -7 -17 -9
13 -12 12 -24 -5 -8 -10 -13 -25 -10 -32 6 -16 -9 -17 -25 -1 -9 9 -12 9 -12
-1 0 -7 -4 -9 -10 -6 -5 3 -10 2 -10 -4 0 -7 -8 -7 -26 -1 -44 17 -41 11 12
-19 152 -87 243 -287 214 -464 -51 -297 -364 -456 -636 -322 -85 42 -168 125
-211 212 -26 54 -28 66 -28 183 1 113 3 131 28 189 14 35 24 68 20 74 -3 5 -2
7 4 4 5 -3 25 12 43 35 19 23 52 54 74 70 21 15 34 28 28 28 -6 0 -14 -4 -17
-10 -3 -5 -16 -10 -28 -9 -12 0 -16 3 -9 6 6 2 12 10 12 16 -1 7 -9 2 -19 -10
-11 -13 -24 -23 -30 -23 -5 0 -14 -7 -19 -16 -8 -14 -13 -13 -49 6 -22 11 -50
23 -62 25 -19 3 -21 1 -15 -18 6 -19 5 -20 -10 -8 -14 12 -16 11 -16 -6 0 -11
-6 -33 -14 -49 -22 -43 -53 -211 -67 -354 -18 -197 2 -451 58 -700 39 -176 41
-188 33 -200 -8 -13 -46 94 -80 225 -54 211 -72 608 -36 830 22 141 67 313
106 412 35 87 128 267 162 313 l22 30 325 -5 c180 -2 329 -5 333 -5z m2705
-82 c-2 -13 -4 -3 -4 22 0 25 2 35 4 23 2 -13 2 -33 0 -45z m844 -14 c13 -14
45 -44 71 -65 l46 -40 78 51 c83 54 98 60 90 33 -3 -10 -14 -54 -24 -99 -21
-92 -23 -87 61 -184 46 -53 40 -58 -64 -59 -76 -1 -78 -3 -118 -103 -13 -32
-26 -58 -30 -58 -3 0 -22 37 -41 82 l-35 83 -78 12 c-43 6 -84 14 -90 16 -7 2
19 35 56 74 l68 70 -11 74 c-18 130 -19 139 -11 139 4 0 18 -12 32 -26z
m-6064 -45 c0 -41 0 -41 -33 -37 -33 4 -40 -4 -35 -36 6 -35 -37 -63 -54 -35
-9 14 -35 -36 -35 -69 0 -14 -3 -22 -7 -18 -4 4 -7 26 -8 50 0 34 3 42 14 38
11 -4 13 -1 7 13 -4 11 -4 17 -1 14 8 -8 65 46 65 61 0 6 5 8 10 5 12 -7 33
12 43 38 13 34 34 19 34 -24z m-177 -129 c0 -5 -5 -10 -11 -10 -5 0 -7 5 -4
10 3 6 8 10 11 10 2 0 4 -4 4 -10z m5383 3 c-13 -2 -33 -2 -45 0 -13 2 -3 4
22 4 25 0 35 -2 23 -4z m-5413 -62 c0 -4 -6 -8 -14 -8 -8 0 -12 6 -9 14 5 13
23 9 23 -6z m5267 -73 c-2 -13 -4 -3 -4 22 0 25 2 35 4 23 2 -13 2 -33 0 -45z
m-5317 7 c0 -2 -10 -10 -22 -16 -21 -11 -22 -11 -9 4 13 16 31 23 31 12z
m5300 -65 c0 -22 -4 -40 -10 -40 -5 0 -10 18 -10 40 0 22 5 40 10 40 6 0 10
-18 10 -40z m176 25 c-21 -16 -36 -18 -60 -9 -31 12 -15 24 32 24 43 -1 46 -2
28 -15z m-2716 -15 c0 -5 -4 -10 -10 -10 -5 0 -10 5 -10 10 0 6 5 10 10 10 6
0 10 -4 10 -10z m-4303 -37 c13 -27 27 -41 51 -48 17 -5 32 -12 32 -15 0 -3
-16 -12 -36 -19 -27 -10 -40 -23 -53 -54 l-18 -42 -7 38 c-7 38 -42 66 -83 68
-10 0 2 10 27 22 33 17 47 30 54 55 5 17 10 32 12 32 2 0 12 -17 21 -37z
m4263 22 c7 -9 10 -18 6 -22 -3 -3 -6 -1 -6 5 0 7 -9 12 -19 12 -11 0 -23 5
-26 10 -10 16 31 11 45 -5z m-2720 -44 c0 -5 -7 -12 -16 -15 -22 -9 -24 -8
-24 9 0 8 9 15 20 15 11 0 20 -4 20 -9z m5340 -1 c0 -5 -4 -10 -10 -10 -5 0
-10 5 -10 10 0 6 5 10 10 10 6 0 10 -4 10 -10z m-5390 -15 c0 -8 -4 -15 -10
-15 -5 0 -10 7 -10 15 0 8 5 15 10 15 6 0 10 -7 10 -15z m-79 -48 c-10 -9 -11
-8 -5 6 3 10 9 15 12 12 3 -3 0 -11 -7 -18z m5474 3 c3 -5 -1 -10 -9 -10 -9 0
-16 5 -16 10 0 6 4 10 9 10 6 0 13 -4 16 -10z m-155 -26 c0 -17 -22 -14 -28 4
-2 7 3 12 12 12 9 0 16 -7 16 -16z m104 4 c-19 -33 -27 -38 -40 -27 -24 20
-16 39 17 39 21 0 28 -4 23 -12z m-64 -158 c0 -5 -4 -10 -10 -10 -5 0 -10 5
-10 10 0 6 5 10 10 10 6 0 10 -4 10 -10z m-5045 -120 c-3 -5 -11 -10 -16 -10
-6 0 -7 5 -4 10 3 6 11 10 16 10 6 0 7 -4 4 -10z m2880 -143 c19 -225 -6 -456
-71 -677 -27 -91 -137 -345 -160 -370 -23 -24 -36 1 -18 35 78 144 128 281
173 465 42 176 53 278 52 494 0 103 3 185 7 182 3 -4 11 -62 17 -129z m-3208
57 c-3 -3 -12 -4 -19 -1 -8 3 -5 6 6 6 11 1 17 -2 13 -5z m548 -128 c8 -27 13
-51 11 -53 -4 -4 -76 161 -76 174 1 18 51 -76 65 -121z m6325 39 c14 -50 44
-80 90 -90 47 -10 44 -22 -10 -40 -56 -19 -72 -38 -91 -105 l-12 -45 -13 30
c-7 17 -13 37 -14 46 0 31 -41 69 -86 80 -24 6 -44 15 -44 19 0 4 19 13 43 18
52 13 71 33 88 90 7 23 18 42 24 42 7 0 18 -20 25 -45z m-1850 -165 c0 -5 -2
-10 -4 -10 -3 0 -8 5 -11 10 -3 6 -1 10 4 10 6 0 11 -4 11 -10z m-5781 -70 c0
-10 -3 -8 -9 5 -12 27 -12 43 0 25 5 -8 9 -22 9 -30z m2564 -83 c-4 -7 -22
-36 -41 -66 -49 -77 -77 -144 -102 -248 -22 -92 -40 -120 -40 -65 0 49 39 183
74 258 35 74 92 148 107 138 5 -3 6 -11 2 -17z m1605 -31 c66 -88 121 -235
122 -323 0 -57 -14 -36 -38 54 -25 97 -65 190 -111 257 -54 78 -31 88 27 12z
m-852 -43 c-4 -16 -21 -77 -39 -138 -24 -82 -33 -103 -35 -80 -5 40 15 140 40
198 22 51 44 64 34 20z m2624 -218 c0 -5 -5 -3 -10 5 -5 8 -10 20 -10 25 0 6
5 3 10 -5 5 -8 10 -19 10 -25z m-93 -47 c-3 -8 -6 -5 -6 6 -1 11 2 17 5 13 3
-3 4 -12 1 -19z m143 -19 c15 -28 5 -23 -15 7 -9 15 -12 23 -6 20 6 -4 16 -16
21 -27z m-255 -29 c0 -16 -3 -30 -7 -30 -10 0 -10 44 -1 53 9 10 9 10 8 -23z
m68 -45 c-3 -9 -8 -14 -10 -11 -3 3 -2 9 2 15 9 16 15 13 8 -4z m-40 -80 c-3
-9 -8 -14 -10 -11 -3 3 -2 9 2 15 9 16 15 13 8 -4z m-2603 -275 c0 -18 -6 -20
-69 -20 -84 0 -131 9 -131 24 0 8 32 13 100 14 95 3 100 2 100 -18z m565 0
c-4 -6 -53 -10 -116 -10 -66 0 -109 4 -109 10 0 6 45 10 116 10 74 0 113 -4
109 -10z m3896 -146 c-35 -201 -147 -450 -249 -554 -29 -30 -28 -26 10 25 96
129 159 272 210 478 33 136 48 162 29 51z m-4421 -99 c0 -13 -13 -15 -77 -13
-50 2 -78 7 -81 16 -3 9 17 12 77 12 66 0 81 -3 81 -15z m426 8 c-15 -4 -16
-7 -5 -14 17 -10 -56 -12 -113 -3 -68 12 -40 24 50 23 48 -1 78 -4 68 -6z
m2421 -275 c-3 -8 -6 -5 -6 6 -1 11 2 17 5 13 3 -3 4 -12 1 -19z m1797 -140
c87 -234 161 -630 154 -823 -5 -122 -22 -93 -30 51 -6 109 -43 371 -54 383 -2
2 -4 -9 -4 -25 0 -22 -3 -26 -10 -14 -7 11 -10 4 -10 -27 0 -26 5 -43 11 -43
15 0 4 -153 -11 -158 -6 -2 -10 -14 -10 -27 0 -39 -11 -55 -37 -55 -23 0 -24
-3 -22 -45 3 -44 2 -46 -39 -66 -46 -23 -51 -32 -24 -49 14 -10 13 -11 -8 -6
-14 3 -32 1 -40 -5 -12 -8 -11 -10 5 -8 11 1 31 1 45 0 20 -1 22 -3 10 -11 -8
-5 -25 -7 -37 -3 -14 3 -23 1 -23 -6 0 -25 -218 -111 -230 -91 -4 7 -15 82
-25 168 -10 87 -22 166 -28 176 -9 19 -10 19 -29 -4 -18 -22 -19 -35 -13 -140
3 -63 8 -134 11 -157 5 -46 29 -19 -225 -247 -36 -32 -117 -109 -180 -170 -62
-61 -105 -97 -95 -81 18 30 18 30 -1 14 -24 -19 -115 -26 -115 -9 0 9 -4 9
-12 2 -11 -8 -108 -22 -108 -15 0 32 28 187 51 276 65 261 177 479 342 667 40
47 72 91 69 99 -3 10 0 11 9 5 11 -6 12 -5 3 7 -7 8 -15 28 -18 46 -8 35 -31
49 -53 32 -11 -10 -11 -14 -1 -20 9 -6 9 -9 1 -9 -20 0 -23 17 -5 32 24 21 46
33 39 21 -3 -5 1 -10 9 -10 10 0 11 4 4 11 -16 16 -13 22 28 54 l37 30 0 -79
c0 -44 -4 -79 -8 -79 -5 0 -5 -5 -1 -11 4 -7 26 8 58 38 82 80 152 135 296
234 130 89 288 188 302 189 3 0 13 -19 22 -42z m-2560 -428 c107 -132 216
-290 276 -403 83 -154 145 -331 138 -394 -2 -20 -11 2 -30 72 -49 176 -243
528 -367 665 l-41 45 22 -40 c12 -22 26 -43 30 -46 5 -3 5 -14 2 -24 -6 -14
-4 -17 9 -12 11 4 14 2 10 -9 -8 -21 17 -75 31 -67 6 3 3 -3 -6 -14 -20 -22
-23 -43 -7 -43 6 0 9 -9 6 -20 -3 -11 -2 -20 3 -20 7 0 22 -47 24 -75 1 -15
24 -27 39 -20 6 4 0 -3 -15 -15 -14 -11 -36 -28 -48 -38 -14 -12 -33 -56 -56
-137 -20 -66 -38 -122 -40 -125 -3 -2 -17 11 -32 30 -14 19 -44 53 -65 75
l-39 39 -13 -24 c-12 -22 -10 -28 16 -60 44 -53 154 -210 174 -250 22 -41 26
-71 11 -68 -18 4 -56 -22 -56 -37 0 -8 -7 -15 -15 -15 -8 0 -15 -4 -15 -10 0
-5 -5 -10 -11 -10 -6 0 -28 -13 -49 -30 -21 -16 -45 -30 -54 -30 -9 0 -16 -7
-16 -15 0 -8 -4 -15 -10 -15 -5 0 -29 -19 -52 -42 -23 -23 -39 -34 -35 -25 8
20 -3 22 -22 5 -11 -10 -13 -10 -7 0 4 6 3 12 -2 12 -16 0 -78 129 -107 220
-79 254 -70 514 29 796 36 103 117 282 164 363 l25 44 54 -59 c30 -33 96 -111
147 -174z m708 138 c42 -6 75 -15 72 -20 -3 -5 7 -6 23 -3 15 3 22 2 15 -1 -8
-4 -1 -12 20 -23 20 -9 34 -25 36 -38 2 -13 11 -28 21 -35 10 -7 22 -28 25
-45 4 -18 13 -36 20 -40 6 -5 18 -27 25 -50 9 -26 18 -40 26 -36 7 2 16 0 20
-6 4 -7 0 -8 -11 -4 -15 5 -14 3 2 -23 18 -28 17 -28 -21 6 -54 48 -158 110
-183 110 -12 0 -24 5 -27 10 -3 6 -11 10 -16 10 -6 0 11 -18 38 -41 69 -59
183 -170 183 -178 0 -4 -61 -15 -135 -24 -74 -9 -143 -22 -153 -28 -32 -20
-47 -5 -100 93 -59 110 -172 358 -172 378 0 10 21 12 108 7 59 -4 142 -12 184
-19z m1113 -128 c-3 -5 1 -11 7 -13 10 -4 10 -6 1 -6 -7 -1 -17 8 -23 19 -9
16 -8 18 5 14 8 -3 13 -10 10 -14z m-669 -51 c3 -6 -5 -3 -20 6 -14 10 -26 19
-26 22 0 7 39 -17 46 -28z m1492 -54 c0 -16 -2 -15 -8 5 -4 14 -8 36 -8 50 0
22 1 22 8 -5 4 -16 8 -39 8 -50z m-1458 24 c0 -5 5 -7 10 -4 6 3 10 2 10 -3 0
-5 11 -21 25 -36 14 -15 25 -24 25 -20 0 3 6 1 14 -6 8 -6 13 -17 11 -23 -7
-18 32 -60 47 -51 10 5 10 4 0 -7 -11 -12 -17 -9 -35 16 -12 17 -46 56 -76 88
-30 31 -49 57 -43 57 7 0 12 -5 12 -11z m1470 -69 c0 -5 -4 -10 -10 -10 -5 0
-10 5 -10 10 0 6 5 10 10 10 6 0 10 -4 10 -10z m-1915 -190 c4 -6 60 -10 134
-10 124 0 129 -1 157 -26 21 -19 23 -23 7 -15 -16 8 -24 8 -29 -1 -4 -6 -3 -8
4 -4 6 3 13 2 17 -4 3 -5 2 -10 -3 -10 -5 0 -23 -22 -40 -50 -17 -27 -36 -50
-43 -50 -6 0 -25 -11 -41 -25 -40 -34 -69 -28 -124 26 -47 46 -130 148 -123
152 2 1 13 7 24 14 25 15 52 16 60 3z m-7143 -162 c44 -23 75 -44 69 -46 -6
-2 -11 -12 -11 -23 0 -22 -11 -24 -28 -7 -17 17 -15 28 6 28 14 0 15 2 2 10
-19 12 -33 13 -26 1 3 -5 -3 -11 -14 -14 -12 -3 -24 1 -30 11 -8 14 -10 11
-10 -13 l-2 -30 -9 26 c-6 15 -19 29 -29 32 -15 4 -20 14 -20 36 0 17 5 31 11
31 6 0 47 -19 91 -42z m976 -5 c-3 -24 -8 -28 -38 -31 -86 -6 -80 8 -80 -178
0 -143 2 -165 15 -160 8 3 37 8 63 12 39 5 50 3 55 -9 7 -18 1 -20 -98 -41
-53 -11 -72 -12 -77 -3 -13 20 -10 395 3 403 15 9 108 32 137 33 20 1 23 -3
20 -26z m5576 -8 c-16 -13 -17 -16 -4 -25 10 -6 11 -10 3 -10 -9 0 -13 -19
-14 -57 -1 -42 -3 -51 -8 -33 -7 24 -8 24 -12 -7 -3 -18 -2 -30 3 -27 4 3 8 3
8 0 0 -2 3 -12 7 -22 4 -11 3 -15 -4 -11 -9 6 -22 -23 -28 -63 0 -3 -4 -10 -8
-17 -4 -6 -4 -18 -1 -27 7 -19 -12 -22 -20 -3 -3 6 -3 1 0 -13 l5 -25 -20 25
c-11 14 -21 28 -21 31 0 3 15 61 34 128 33 116 61 171 90 171 5 0 1 -7 -10
-15z m657 -136 c64 -60 63 -60 -34 16 -54 43 -100 75 -102 73 -4 -5 23 -110
34 -129 17 -30 58 -225 63 -299 3 -44 2 -45 -30 -48 -18 -2 -36 -10 -38 -17
-7 -18 -73 -57 -84 -50 -5 3 -12 -5 -15 -16 -12 -36 -23 -3 -35 97 -12 113 -1
217 40 353 45 151 42 148 93 111 24 -17 72 -58 108 -91z m-6006 -7 c-3 -3 -11
0 -18 7 -9 10 -8 11 6 5 10 -3 15 -9 12 -12z m1397 -75 c52 -24 58 -30 77 -82
53 -142 75 -223 51 -185 -8 12 -10 11 -10 -7 0 -13 -4 -23 -9 -23 -5 0 -7 10
-4 23 3 14 2 18 -4 10 -12 -17 -28 -3 -46 40 -9 20 -21 37 -26 37 -6 0 -11 7
-11 15 0 7 -6 18 -13 22 -21 13 -49 64 -43 78 3 8 -5 26 -17 41 -12 16 -15 24
-8 19 11 -6 13 -4 8 8 -15 37 -19 52 -10 41 4 -6 33 -23 65 -37z m6023 19 c11
1 29 4 40 9 11 4 3 -4 -17 -18 -21 -15 -51 -36 -67 -48 -16 -12 -34 -19 -39
-15 -6 3 -14 1 -18 -5 -4 -7 -3 -9 4 -5 6 3 13 2 17 -3 3 -6 -3 -8 -15 -6 -11
2 -22 0 -25 -6 -4 -5 -15 -9 -26 -9 -17 0 -22 -10 -22 -45 0 -5 -16 -11 -34
-13 -21 -1 -42 -11 -52 -23 -11 -13 -22 -18 -34 -13 -14 5 -15 9 -6 20 6 8 18
13 27 12 8 -2 17 3 20 11 3 10 0 11 -9 5 -11 -6 -10 -3 1 12 25 32 64 59 80
56 11 -2 12 -1 2 6 -10 6 -8 13 8 27 18 17 23 17 32 5 8 -12 9 -11 4 3 -10 30
31 58 74 50 19 -4 44 -7 55 -7z m-3398 -192 c-3 -3 -12 -4 -19 -1 -8 3 -5 6 6
6 11 1 17 -2 13 -5z m3099 -26 c5 -7 2 -9 -8 -5 -9 3 -22 0 -29 -6 -11 -10
-11 -9 0 6 16 20 27 22 37 5z m44 -18 c0 -5 -2 -10 -4 -10 -3 0 -8 5 -11 10
-3 6 -1 10 4 10 6 0 11 -4 11 -10z m-6739 -260 c135 -150 140 -157 125 -169
-11 -10 -16 -8 -21 8 -4 12 -12 18 -21 14 -7 -3 -14 -1 -14 5 0 5 -8 9 -17 8
-13 -1 -17 5 -16 22 2 17 -2 22 -22 22 -14 0 -25 5 -25 10 0 6 -7 10 -15 10
-8 0 -15 5 -15 12 0 6 -3 8 -7 5 -8 -9 -53 32 -53 49 0 6 -9 14 -21 17 -12 3
-18 10 -14 16 3 6 -2 11 -12 12 -33 1 18 18 58 18 32 1 42 -6 90 -59z m5376
38 c-3 -8 -6 -5 -6 6 -1 11 2 17 5 13 3 -3 4 -12 1 -19z m-6410 -225 c-3 -10
-5 -4 -5 12 0 17 2 24 5 18 2 -7 2 -21 0 -30z m1189 5 c4 -7 4 -10 -1 -6 -4 4
-14 3 -22 -4 -11 -8 -12 -7 -7 6 7 19 20 21 30 4z m25 -35 c13 -16 12 -17 -3
-4 -17 13 -22 21 -14 21 2 0 10 -8 17 -17z m-1516 -59 c28 -4 70 -7 95 -7 25
0 34 -2 20 -4 -14 -3 -29 -8 -35 -13 -42 -32 -205 -8 -205 31 0 10 16 9 125
-7z m1825 -118 c0 -3 -4 -8 -10 -11 -5 -3 -10 -1 -10 4 0 6 5 11 10 11 6 0 10
-2 10 -4z m6443 -471 c-48 -32 -93 -46 -93 -27 1 18 77 61 110 62 l35 0 -52
-35z m-508 -50 c-16 -13 -100 -69 -185 -124 -85 -55 -181 -117 -213 -138 -32
-21 -98 -63 -147 -93 -49 -30 -96 -64 -104 -75 -12 -16 -15 -17 -16 -4 0 17
41 58 85 84 17 10 80 50 140 90 364 240 437 286 460 285 5 -1 -3 -12 -20 -25z
m-6345 -15 c91 -17 289 -29 396 -23 75 4 106 2 125 -8 23 -13 21 -14 -41 -22
-190 -22 -497 -17 -566 10 -8 3 -14 -1 -14 -9 0 -8 6 -15 13 -15 6 -1 68 -9
137 -18 92 -12 172 -16 302 -13 97 2 175 1 172 -3 -2 -4 2 -9 8 -12 7 -2 -10
-9 -38 -16 -65 -16 -367 -8 -507 13 -54 9 -104 13 -112 9 -21 -7 -85 6 -85 17
0 6 22 25 50 42 27 18 52 41 56 51 3 11 12 16 27 12 12 -2 47 -9 77 -15z
m6842 -15 c40 -26 81 -64 107 -98 12 -15 12 -17 -2 -12 -9 4 -17 0 -21 -12 -3
-10 -18 -24 -34 -31 -16 -6 -38 -21 -49 -32 -12 -11 -55 -41 -95 -67 -40 -25
-75 -49 -78 -52 -8 -10 -173 -117 -210 -137 -19 -10 -57 -35 -85 -55 -27 -20
-93 -62 -145 -94 -52 -32 -96 -62 -98 -67 -2 -4 -10 -8 -18 -8 -8 0 -14 -4
-14 -8 0 -5 -28 -25 -62 -45 -35 -21 -85 -53 -113 -72 -128 -91 -336 -221
-347 -218 -5 2 -8 -5 -8 -14 0 -12 -14 -4 -47 29 -27 25 -61 52 -76 60 -27 14
-30 13 -67 -24 -38 -38 -90 -53 -90 -25 0 24 55 67 85 67 42 0 21 13 -31 20
l-46 5 49 34 c26 19 98 67 158 107 61 40 171 114 245 164 256 172 322 215 425
280 57 36 168 108 247 162 79 53 175 115 213 137 63 38 75 41 119 37 29 -3 65
-16 88 -31z m-8254 -169 c-52 -53 -53 -54 -72 -36 -11 10 -16 25 -13 34 10 25
68 56 105 56 l34 0 -54 -54z m727 -218 c72 -34 173 -80 225 -103 97 -43 330
-148 664 -299 103 -46 197 -93 208 -103 21 -18 185 -254 194 -278 4 -9 0 -12
-14 -8 -13 3 -25 -3 -34 -16 -14 -20 -16 -20 -69 -5 -76 22 -249 97 -249 108
0 5 7 17 16 27 14 16 14 18 -5 24 -12 3 -19 11 -16 16 4 5 0 9 -8 9 -8 0 -46
13 -83 29 -38 16 -123 51 -189 79 -66 28 -169 74 -230 102 -60 29 -126 59
-145 67 -19 8 -72 33 -116 54 -45 21 -93 41 -108 45 -14 3 -26 9 -26 13 0 6
-22 17 -98 47 -24 9 -41 19 -38 21 3 3 -1 12 -9 20 -29 29 -14 32 39 9 30 -13
94 -43 143 -67 123 -59 164 -76 196 -83 15 -4 27 -11 27 -17 0 -6 5 -7 10 -4
6 3 10 1 10 -4 0 -6 7 -11 15 -11 9 0 38 -11 65 -25 27 -14 57 -25 65 -25 10
0 13 -5 9 -12 -4 -6 -3 -8 4 -4 6 3 53 -13 104 -38 51 -24 104 -47 118 -51 14
-4 41 -16 60 -26 43 -22 127 -59 135 -59 3 0 40 -16 81 -36 42 -20 78 -34 80
-31 4 3 -119 63 -224 109 -26 11 -76 34 -112 50 -36 17 -130 59 -210 93 -242
105 -412 181 -512 229 -52 25 -102 46 -111 46 -9 0 -24 -14 -32 -31 -11 -20
-21 -29 -32 -25 -8 3 -27 9 -41 12 -15 4 -32 11 -39 16 -7 5 -17 7 -23 3 -33
-20 26 83 78 137 38 40 43 49 32 63 -7 8 -18 15 -24 15 -14 0 -156 67 -156 74
0 7 228 -88 375 -156z m3785 -132 c0 -2 -7 -7 -16 -10 -8 -3 -12 -2 -9 4 6 10
25 14 25 6z m2207 -527 c36 -13 98 -74 114 -111 10 -25 9 -31 -11 -48 -13 -11
-27 -20 -31 -20 -11 0 -189 -101 -195 -111 -3 -5 -23 10 -44 31 -22 22 -49 40
-61 40 -27 0 -26 1 59 125 68 99 74 105 107 105 18 0 46 -5 62 -11z m-217
-258 c0 -18 -129 -135 -138 -126 -10 10 106 143 126 144 6 1 12 -8 12 -18z"/>
<path d="M5368 8333 c7 -3 16 -2 19 1 4 3 -2 6 -13 5 -11 0 -14 -3 -6 -6z"/>
<path d="M5040 8034 c0 -12 6 -15 23 -10 12 3 30 6 40 6 9 0 17 5 17 10 0 6
-18 10 -40 10 -30 0 -40 -4 -40 -16z"/>
<path d="M5020 7990 c0 -5 7 -10 15 -10 8 0 15 5 15 10 0 6 -7 10 -15 10 -8 0
-15 -4 -15 -10z"/>
<path d="M4882 7860 c0 -14 2 -19 5 -12 2 6 2 18 0 25 -3 6 -5 1 -5 -13z"/>
<path d="M5363 7800 c0 -25 2 -35 4 -22 2 12 2 32 0 45 -2 12 -4 2 -4 -23z"/>
<path d="M4890 7819 c0 -5 5 -7 10 -4 6 3 10 8 10 11 0 2 -4 4 -10 4 -5 0 -10
-5 -10 -11z"/>
<path d="M5440 7690 c0 -6 7 -10 15 -10 8 0 15 2 15 4 0 2 -7 6 -15 10 -8 3
-15 1 -15 -4z"/>
<path d="M5424 7629 c-3 -6 -1 -16 5 -22 8 -8 11 -5 11 11 0 24 -5 28 -16 11z"/>
<path d="M4655 7590 c-3 -5 -13 -7 -23 -4 -14 5 -15 4 -2 -5 20 -14 27 -14 34
4 6 17 0 20 -9 5z"/>
<path d="M5518 7589 c4 -4 25 -9 47 -12 22 -3 34 -3 27 0 -6 2 -9 9 -6 14 3 6
-11 8 -35 7 -22 -2 -37 -6 -33 -9z"/>
<path d="M8160 7461 c0 -6 4 -13 10 -16 6 -3 7 1 4 9 -7 18 -14 21 -14 7z"/>
<path d="M8240 7160 c0 -22 5 -40 10 -40 6 0 10 18 10 40 0 22 -4 40 -10 40
-5 0 -10 -18 -10 -40z"/>
<path d="M7950 6760 c0 -22 16 -26 40 -10 13 9 13 11 0 20 -24 16 -40 12 -40
-10z"/>
<path d="M7920 6681 c0 -30 4 -41 16 -41 11 0 14 9 12 37 -4 52 -28 56 -28 4z"/>
<path d="M7242 6570 c0 -14 2 -19 5 -12 2 6 2 18 0 25 -3 6 -5 1 -5 -13z"/>
<path d="M7870 6550 c0 -5 5 -10 10 -10 6 0 10 5 10 10 0 6 -4 10 -10 10 -5 0
-10 -4 -10 -10z"/>
<path d="M7361 6480 c0 -8 4 -22 9 -30 12 -18 12 -2 0 25 -6 13 -9 15 -9 5z"/>
<path d="M7252 6455 c0 -16 2 -22 5 -12 2 9 2 23 0 30 -3 6 -5 -1 -5 -18z"/>
<path d="M7262 6375 c0 -16 2 -22 5 -12 2 9 2 23 0 30 -3 6 -5 -1 -5 -18z"/>
<path d="M3160 6273 c0 -10 4 -24 9 -32 6 -9 9 -5 9 13 0 15 -4 29 -9 32 -5 3
-9 -3 -9 -13z"/>
<path d="M7272 6260 c0 -14 2 -19 5 -12 2 6 2 18 0 25 -3 6 -5 1 -5 -13z"/>
<path d="M6826 6227 c3 -10 9 -15 12 -12 3 3 0 11 -7 18 -10 9 -11 8 -5 -6z"/>
<path d="M7281 6174 c0 -11 3 -14 6 -6 3 7 2 16 -1 19 -3 4 -6 -2 -5 -13z"/>
<path d="M7293 6095 c0 -22 2 -30 4 -17 2 12 2 30 0 40 -3 9 -5 -1 -4 -23z"/>
<path d="M3150 6063 c0 -8 5 -11 11 -7 7 4 10 -17 7 -70 -2 -42 0 -76 5 -76 4
0 7 38 7 83 0 68 -3 84 -15 84 -8 0 -15 -7 -15 -14z"/>
<path d="M7303 6005 c0 -22 2 -30 4 -17 2 12 2 30 0 40 -3 9 -5 -1 -4 -23z"/>
<path d="M7312 5900 c0 -14 2 -19 5 -12 2 6 2 18 0 25 -3 6 -5 1 -5 -13z"/>
<path d="M7323 5835 c0 -22 2 -30 4 -17 2 12 2 30 0 40 -3 9 -5 -1 -4 -23z"/>
<path d="M3009 5414 c-35 -52 -89 -133 -119 -179 -194 -296 -289 -435 -298
-435 -4 0 -23 15 -42 33 -133 123 -202 179 -209 171 -5 -5 -43 -66 -84 -135
l-75 -127 38 -6 c35 -5 100 -48 100 -65 0 -4 -81 -25 -180 -46 l-180 -39 0
-139 0 -140 53 7 c28 4 95 18 147 31 142 35 317 68 332 62 7 -2 33 -44 57 -91
24 -47 48 -86 52 -86 4 0 17 26 29 58 44 120 64 162 79 166 9 3 43 10 76 16
33 6 77 16 98 21 l37 10 0 139 0 140 -45 -7 c-25 -3 -45 -3 -45 0 0 4 23 64
51 134 100 250 210 586 196 599 -2 2 -32 -39 -68 -92z"/>
<path d="M1755 5403 c-33 -8 -136 -30 -230 -49 -134 -27 -174 -39 -187 -55
-16 -19 -18 -48 -18 -270 l0 -249 23 -11 c22 -10 56 -4 439 82 82 19 83 19 86
280 4 288 0 299 -113 272z m37 -260 c2 -104 2 -193 0 -200 -2 -6 -11 -14 -20
-18 -39 -15 -355 -76 -368 -71 -11 4 -14 42 -14 200 0 193 0 195 23 202 39 13
321 72 349 73 l27 1 3 -187z"/>
<path d="M1440 4982 c0 -75 2 -83 18 -78 9 2 43 10 74 16 32 6 60 16 63 21 5
8 -38 13 -85 10 -10 0 -11 1 -2 5 6 3 12 10 12 15 0 6 -4 8 -9 4 -5 -3 -12 4
-16 14 -4 12 -12 18 -21 14 -9 -3 -14 1 -14 13 0 11 -5 26 -10 34 -7 10 -10
-11 -10 -68z"/>
<path d="M1618 4943 c7 -3 16 -2 19 1 4 3 -2 6 -13 5 -11 0 -14 -3 -6 -6z"/>
<path d="M932 4983 c-4 -10 -7 -434 -7 -943 l0 -925 26 -3 27 -3 -4 223 c-2
123 -5 367 -8 543 -3 176 -8 484 -13 685 -4 201 -6 382 -5 403 2 40 -4 48 -16
20z"/>
<path d="M1575 4613 c-159 -33 -215 -49 -232 -65 -23 -21 -23 -25 -23 -268 0
-258 2 -270 45 -270 36 0 466 97 476 107 21 21 29 94 29 293 0 228 -5 251 -58
249 -15 -1 -121 -21 -237 -46z m215 -237 l0 -204 -77 -17 c-43 -9 -128 -27
-190 -41 -62 -13 -117 -24 -123 -24 -6 0 -10 70 -10 205 0 204 0 205 23 210
92 23 336 74 355 74 l22 1 0 -204z"/>
<path d="M1640 4505 c-30 -7 -90 -21 -132 -30 l-78 -17 7 -156 c3 -87 6 -158
7 -159 3 -4 262 57 284 67 25 11 27 37 15 213 -7 110 -2 106 -103 82z"/>
<path d="M1023 4600 c0 -25 2 -35 4 -22 2 12 2 32 0 45 -2 12 -4 2 -4 -23z"/>
<path d="M4783 4525 c3 -11 13 -51 22 -90 25 -108 95 -240 167 -319 l63 -68
50 54 c72 79 91 106 120 167 21 42 24 59 16 80 -5 14 -10 20 -10 13 -1 -11 -4
-10 -16 1 -8 9 -20 17 -27 19 -10 4 -10 9 2 23 11 14 11 17 1 11 -10 -7 -12
-3 -7 15 3 13 3 18 0 11 -3 -6 -10 -10 -15 -6 -13 8 -11 -10 4 -25 10 -10 9
-11 -3 -7 -10 4 -29 -15 -59 -59 -46 -68 -63 -78 -83 -45 -7 11 -17 20 -22 20
-5 0 -2 -8 7 -18 10 -10 17 -26 17 -35 0 -25 -41 -22 -47 3 -3 11 -12 20 -20
20 -8 0 -11 5 -8 10 3 6 2 10 -4 10 -5 0 -12 -6 -14 -12 -3 -8 -6 -6 -6 5 -1
9 5 17 12 17 6 0 4 5 -6 11 -9 6 -14 15 -11 21 4 7 2 8 -4 4 -7 -4 -12 -15
-13 -24 0 -9 -5 -2 -10 16 -6 20 -14 30 -21 26 -7 -5 -9 -2 -5 9 4 10 2 16 -5
14 -5 -1 -21 29 -34 67 -22 64 -44 107 -31 61z"/>
<path d="M5281 4524 c0 -11 3 -14 6 -6 3 7 2 16 -1 19 -3 4 -6 -2 -5 -13z"/>
<path d="M5173 4481 c0 -11 5 -18 9 -15 4 3 5 11 1 19 -7 21 -12 19 -10 -4z"/>
<path d="M1023 4440 c0 -25 2 -35 4 -22 2 12 2 32 0 45 -2 12 -4 2 -4 -23z"/>
<path d="M5261 4444 c0 -11 3 -14 6 -6 3 7 2 16 -1 19 -3 4 -6 -2 -5 -13z"/>
<path d="M5241 4389 c-13 -39 -14 -46 -2 -33 9 10 24 64 17 64 -2 0 -9 -14
-15 -31z"/>
<path d="M4936 4375 c8 -37 10 -39 17 -23 2 8 -2 23 -10 33 -13 19 -14 18 -7
-10z"/>
<path d="M4970 4280 c0 -5 5 -10 10 -10 6 0 10 5 10 10 0 6 -4 10 -10 10 -5 0
-10 -4 -10 -10z"/>
<path d="M2695 3990 c-99 -22 -211 -46 -250 -54 -38 -9 -149 -31 -245 -51
-248 -50 -234 -45 -238 -81 -3 -30 -1 -32 75 -59 43 -15 122 -50 176 -77 l97
-48 168 34 c217 45 402 85 425 92 15 5 17 21 17 145 0 138 0 139 -22 138 -13
-1 -104 -18 -203 -39z"/>
<path d="M1703 3867 c-51 -12 -93 -24 -93 -27 0 -5 216 -40 248 -40 17 0 15
56 -4 74 -19 20 -35 19 -151 -7z"/>
<path d="M3170 3680 c-8 -5 -12 -12 -9 -15 4 -3 12 1 19 10 14 17 11 19 -10 5z"/>
<path d="M4540 3345 c0 -9 -11 -20 -25 -25 -14 -5 -28 -17 -31 -25 -4 -10 -21
-15 -53 -15 -37 -1 -52 -6 -78 -30 -38 -34 -40 -40 -15 -40 14 0 15 -2 2 -10
-12 -8 -12 -10 -1 -10 8 0 11 -3 8 -6 -4 -4 -13 -2 -20 5 -19 15 -106 12 -134
-5 -12 -8 -29 -11 -37 -8 -9 4 -16 1 -16 -6 0 -7 -6 -10 -14 -7 -8 3 -17 1
-20 -6 -2 -7 -5 -4 -5 6 -1 9 -5 17 -10 17 -5 0 -12 -8 -14 -17 -4 -17 -5 -17
-6 0 -2 27 -41 -2 -41 -31 0 -13 -4 -21 -9 -18 -26 16 17 -79 59 -131 62 -75
92 -93 118 -70 10 10 30 17 44 17 23 0 25 3 25 43 -1 64 6 106 17 100 6 -4 6
1 2 13 -4 10 -4 15 0 12 3 -4 18 5 33 19 34 33 98 63 137 63 17 0 48 -7 67
-15 33 -14 36 -13 41 3 9 32 16 198 7 172 -9 -24 -9 -24 -10 -2 -1 24 -21 31
-21 7z m-140 -89 c0 -3 -4 -8 -10 -11 -5 -3 -10 -1 -10 4 0 6 5 11 10 11 6 0
10 -2 10 -4z"/>
<path d="M2617 2703 c3 -7 6 -13 8 -13 2 0 5 6 8 13 3 8 -1 14 -8 14 -7 0 -11
-6 -8 -14z"/>
<path d="M6425 2256 c11 -8 27 -22 36 -31 11 -10 19 -13 23 -6 4 6 -13 20 -36
31 -24 12 -34 14 -23 6z"/>
<path d="M6485 2209 c-4 -6 -4 -13 -1 -16 3 -4 -8 -15 -25 -25 -22 -13 -40
-17 -61 -13 -23 5 -35 2 -54 -16 -13 -12 -24 -31 -24 -41 0 -11 -7 -18 -19
-18 -28 0 -52 -11 -46 -21 8 -13 -40 -40 -59 -33 -34 13 -14 -6 39 -36 30 -17
60 -28 66 -24 7 4 9 3 6 -3 -4 -6 57 -43 142 -86 l148 -76 109 63 c195 112
223 131 224 144 0 6 -5 12 -10 12 -6 0 -54 20 -107 45 -52 25 -97 45 -98 45
-2 0 -49 25 -106 55 -110 59 -114 61 -124 44z m52 -35 c-3 -3 -12 -4 -19 -1
-8 3 -5 6 6 6 11 1 17 -2 13 -5z m-192 -222 c-3 -3 -11 0 -18 7 -9 10 -8 11 6
5 10 -3 15 -9 12 -12z"/>
<path d="M5554 2183 c11 -3 26 -11 34 -19 7 -8 26 -14 42 -14 22 0 29 -6 35
-27 7 -28 -15 -52 -82 -88 -30 -17 -33 -16 -100 10 -81 33 -139 37 -158 12 -8
-11 -19 -15 -30 -11 -13 5 -16 2 -13 -17 2 -18 11 -25 33 -29 l30 -6 -31 -6
c-18 -4 -45 -10 -60 -13 -23 -5 -26 -4 -14 5 13 10 12 11 -3 6 -10 -3 -26 -6
-35 -7 -9 0 3 -7 28 -13 83 -24 294 -117 460 -204 91 -47 224 -116 295 -154
72 -37 141 -68 155 -68 14 0 59 19 100 43 176 101 260 152 260 159 0 6 -67 43
-360 196 -160 84 -416 202 -480 222 -25 7 -49 17 -54 22 -6 4 -24 7 -40 7 -21
-1 -25 -3 -12 -6z"/>
<path d="M3058 2153 c12 -2 32 -2 45 0 12 2 2 4 -23 4 -25 0 -35 -2 -22 -4z"/>
<path d="M7649 2118 c-18 -16 -19 -19 -6 -15 10 4 22 7 26 7 4 0 8 7 8 15 0
19 1 19 -28 -7z"/>
<path d="M7858 2057 c-37 -23 -65 -43 -63 -45 7 -8 111 47 130 68 27 30 8 23
-67 -23z"/>
<path d="M5318 2083 c6 -2 18 -2 25 0 6 3 1 5 -13 5 -14 0 -19 -2 -12 -5z"/>
<path d="M7599 2077 c-35 -16 -109 -70 -109 -80 0 -4 26 10 58 31 31 21 66 44
77 50 27 15 7 14 -26 -1z"/>
<path d="M6100 2068 c11 -12 72 -39 66 -30 -3 6 -1 12 6 14 7 3 5 7 -6 11 -11
5 -15 3 -10 -5 5 -8 2 -9 -9 -5 -39 16 -52 20 -47 15z"/>
<path d="M6198 2063 c7 -3 16 -2 19 1 4 3 -2 6 -13 5 -11 0 -14 -3 -6 -6z"/>
<path d="M7750 1980 c-9 -6 -10 -10 -3 -10 6 0 15 5 18 10 8 12 4 12 -15 0z"/>
<path d="M7521 1840 c-44 -25 -66 -47 -26 -27 31 16 74 47 65 46 -3 0 -20 -9
-39 -19z"/>
<path d="M7275 1787 c-17 -12 -33 -26 -37 -31 -3 -5 -19 -15 -35 -22 -15 -7
-21 -13 -13 -13 14 -1 44 16 75 41 6 5 19 15 30 23 11 7 18 16 15 18 -3 3 -19
-4 -35 -16z"/>
<path d="M7439 1783 c-13 -16 -12 -17 4 -4 16 13 21 21 13 21 -2 0 -10 -8 -17
-17z"/>
<path d="M7360 1740 c-8 -5 -10 -10 -5 -10 6 0 17 5 25 10 8 5 11 10 5 10 -5
0 -17 -5 -25 -10z"/>
<path d="M7092 1673 c-18 -8 -31 -18 -28 -20 5 -5 66 25 66 32 0 7 -1 7 -38
-12z"/>
<path d="M7236 1665 c-11 -8 -15 -15 -9 -15 6 0 16 7 23 15 16 19 11 19 -14 0z"/>
<path d="M5630 1446 c0 -2 7 -9 15 -16 9 -7 15 -8 15 -2 0 5 -7 12 -15 16 -8
3 -15 4 -15 2z"/>
<path d="M5710 1406 c14 -7 36 -16 50 -20 14 -3 7 3 -15 13 -45 22 -73 27 -35
7z"/>
<path d="M6008 1313 c7 -3 16 -2 19 1 4 3 -2 6 -13 5 -11 0 -14 -3 -6 -6z"/>
<path d="M5800 1190 c-8 -5 -10 -10 -5 -10 6 0 17 5 25 10 8 5 11 10 5 10 -5
0 -17 -5 -25 -10z"/>
<path d="M5850 1170 c8 -5 20 -10 25 -10 6 0 3 5 -5 10 -8 5 -19 10 -25 10 -5
0 -3 -5 5 -10z"/>
<path d="M5978 1123 c7 -3 16 -2 19 1 4 3 -2 6 -13 5 -11 0 -14 -3 -6 -6z"/>
<path d="M4720 7669 c0 -5 5 -7 10 -4 6 3 10 8 10 11 0 2 -4 4 -10 4 -5 0 -10
-5 -10 -11z"/>
<path d="M2930 7439 c0 -6 5 -19 10 -29 9 -16 14 -18 35 -8 27 12 41 37 22 39
-7 1 -24 3 -39 5 -16 1 -28 -2 -28 -7z"/>
<path d="M4960 7116 l-35 -13 35 -8 35 -8 -55 -18 c-30 -10 -59 -15 -65 -12
-7 4 -7 2 0 -5 7 -7 25 -8 60 -1 28 5 73 10 100 11 28 1 40 3 27 6 -12 2 -20
8 -17 13 3 5 -1 6 -9 3 -10 -4 -16 2 -18 17 -4 28 -14 31 -58 15z m27 -12 c-3
-3 -12 -4 -19 -1 -8 3 -5 6 6 6 11 1 17 -2 13 -5z"/>
<path d="M4928 7083 c6 -2 18 -2 25 0 6 3 1 5 -13 5 -14 0 -19 -2 -12 -5z"/>
<path d="M5128 7053 c7 -3 16 -2 19 1 4 3 -2 6 -13 5 -11 0 -14 -3 -6 -6z"/>
<path d="M4780 7029 c-13 -9 -13 -10 1 -6 9 3 23 0 30 -6 11 -10 11 -9 0 6 -7
9 -14 17 -15 17 0 0 -8 -5 -16 -11z"/>
<path d="M4840 7030 c-8 -5 -10 -10 -5 -10 6 0 17 5 25 10 8 5 11 10 5 10 -5
0 -17 -5 -25 -10z"/>
<path d="M4933 6901 c-72 -24 -119 -58 -154 -111 -120 -180 -40 -409 164 -471
82 -26 143 -22 220 14 196 92 237 338 83 493 -88 87 -200 114 -313 75z m175
-77 c28 -32 28 -66 -2 -129 -37 -80 -138 -154 -209 -155 -35 0 -83 24 -97 49
-21 41 -3 170 23 154 6 -4 8 0 4 10 -3 9 -1 19 5 23 7 5 8 2 4 -7 -4 -8 0 -5
8 5 9 11 16 24 16 28 0 5 23 20 52 33 71 33 161 28 196 -11z"/>
<path d="M5621 6784 c0 -11 3 -14 6 -6 3 7 2 16 -1 19 -3 4 -6 -2 -5 -13z"/>
<path d="M9591 4344 c0 -11 3 -14 6 -6 3 7 2 16 -1 19 -3 4 -6 -2 -5 -13z"/>
<path d="M9602 4300 c0 -14 2 -19 5 -12 2 6 2 18 0 25 -3 6 -5 1 -5 -13z"/>
<path d="M8820 4287 c0 -8 7 -17 15 -21 8 -3 15 -2 15 3 0 5 -7 14 -15 21 -12
10 -15 10 -15 -3z"/>
<path d="M7688 3893 c7 -3 16 -2 19 1 4 3 -2 6 -13 5 -11 0 -14 -3 -6 -6z"/>
<path d="M9095 3470 c-11 -12 -25 -18 -34 -15 -13 5 -14 4 -3 -7 10 -10 17 -7
39 15 15 15 25 27 22 27 -3 0 -14 -9 -24 -20z"/>
<path d="M8988 3373 c7 -3 16 -2 19 1 4 3 -2 6 -13 5 -11 0 -14 -3 -6 -6z"/>
<path d="M8920 3339 c0 -5 5 -7 10 -4 6 3 10 8 10 11 0 2 -4 4 -10 4 -5 0 -10
-5 -10 -11z"/>
<path d="M2250 2909 c0 -5 5 -7 10 -4 6 3 10 8 10 11 0 2 -4 4 -10 4 -5 0 -10
-5 -10 -11z"/>
</g>
</svg>
